<mxfile host="app.diagrams.net" modified="2023-04-17T13:08:46.789Z" agent="Mozilla/5.0 (Macintosh; Intel Mac OS X 10_15_7) AppleWebKit/537.36 (KHTML, like Gecko) Chrome/112.0.0.0 Safari/537.36" etag="CmPl4fJVBvmQOxlKiA5N" version="21.1.8" type="device">
  <diagram name="Strona-1" id="7sL7jSqanu6i5b_uf_2S">
    <mxGraphModel dx="4003" dy="4402" grid="1" gridSize="10" guides="1" tooltips="1" connect="1" arrows="1" fold="1" page="1" pageScale="1" pageWidth="827" pageHeight="1169" math="0" shadow="0">
      <root>
        <mxCell id="0" />
        <mxCell id="1" parent="0" />
        <mxCell id="ppS9PcY42wEfVptC4WH2-1" value="&lt;font style=&quot;font-size: 14px;&quot;&gt;Guest&lt;/font&gt;" style="shape=umlActor;verticalLabelPosition=bottom;verticalAlign=top;html=1;fillColor=#000000;" parent="1" vertex="1">
          <mxGeometry x="138" y="-1075" width="40" height="80" as="geometry" />
        </mxCell>
        <mxCell id="ppS9PcY42wEfVptC4WH2-2" value="&lt;font style=&quot;font-size: 14px;&quot;&gt;User&lt;/font&gt;" style="shape=umlActor;verticalLabelPosition=bottom;verticalAlign=top;html=1;fillColor=#d5e8d4;strokeColor=#82b366;" parent="1" vertex="1">
          <mxGeometry x="138" y="-895" width="40" height="80" as="geometry" />
        </mxCell>
        <mxCell id="ppS9PcY42wEfVptC4WH2-3" value="&lt;font style=&quot;font-size: 14px;&quot;&gt;Employee&lt;/font&gt;" style="shape=umlActor;verticalLabelPosition=bottom;verticalAlign=top;html=1;fillColor=#e1d5e7;strokeColor=#9673a6;" parent="1" vertex="1">
          <mxGeometry x="138" y="-715" width="40" height="80" as="geometry" />
        </mxCell>
        <mxCell id="ppS9PcY42wEfVptC4WH2-4" value="&lt;font color=&quot;#000000&quot; style=&quot;font-size: 14px;&quot;&gt;Admin&lt;/font&gt;" style="shape=umlActor;verticalLabelPosition=bottom;verticalAlign=top;html=1;fillColor=#e51400;strokeColor=#B20000;fontColor=#ffffff;" parent="1" vertex="1">
          <mxGeometry x="138" y="-535" width="40" height="80" as="geometry" />
        </mxCell>
        <mxCell id="ppS9PcY42wEfVptC4WH2-19" value="&lt;font style=&quot;font-size: 12px;&quot;&gt;&amp;lt;&amp;lt;include&amp;gt;&amp;gt;&lt;/font&gt;" style="edgeStyle=orthogonalEdgeStyle;rounded=0;orthogonalLoop=1;jettySize=auto;html=1;fontSize=8;dashed=1;endArrow=openThin;endFill=0;entryX=0;entryY=0.5;entryDx=0;entryDy=0;exitX=0;exitY=0.5;exitDx=0;exitDy=0;endSize=10;startSize=10;jumpStyle=arc;strokeWidth=1;" parent="1" source="ppS9PcY42wEfVptC4WH2-14" target="ppS9PcY42wEfVptC4WH2-15" edge="1">
          <mxGeometry relative="1" as="geometry">
            <mxPoint x="302" y="-1009" as="sourcePoint" />
            <mxPoint x="432" y="-1009" as="targetPoint" />
            <Array as="points">
              <mxPoint x="458" y="-980" />
              <mxPoint x="458" y="-870" />
            </Array>
          </mxGeometry>
        </mxCell>
        <mxCell id="ppS9PcY42wEfVptC4WH2-14" value="&lt;font style=&quot;font-size: 14px;&quot;&gt;Input login data&lt;/font&gt;" style="ellipse;whiteSpace=wrap;html=1;fillColor=#dae8fc;strokeColor=#6c8ebf;" parent="1" vertex="1">
          <mxGeometry x="488" y="-1015" width="140" height="70" as="geometry" />
        </mxCell>
        <mxCell id="ppS9PcY42wEfVptC4WH2-15" value="&lt;font style=&quot;font-size: 14px;&quot;&gt;Login data&lt;br&gt;verification&lt;/font&gt;" style="ellipse;whiteSpace=wrap;html=1;fillColor=#dae8fc;strokeColor=#6c8ebf;" parent="1" vertex="1">
          <mxGeometry x="488" y="-905" width="140" height="70" as="geometry" />
        </mxCell>
        <mxCell id="ppS9PcY42wEfVptC4WH2-16" value="&lt;font style=&quot;font-size: 14px;&quot;&gt;Password reset&lt;/font&gt;" style="ellipse;whiteSpace=wrap;html=1;fillColor=#dae8fc;strokeColor=#6c8ebf;" parent="1" vertex="1">
          <mxGeometry x="488" y="-795" width="140" height="70" as="geometry" />
        </mxCell>
        <mxCell id="ppS9PcY42wEfVptC4WH2-17" value="&lt;font style=&quot;font-size: 14px;&quot;&gt;Login&lt;/font&gt;" style="shape=umlFrame;whiteSpace=wrap;html=1;pointerEvents=0;width=100;height=30;fillColor=#fff2cc;strokeColor=#d6b656;" parent="1" vertex="1">
          <mxGeometry x="418" y="-1075" width="290" height="380" as="geometry" />
        </mxCell>
        <mxCell id="ppS9PcY42wEfVptC4WH2-20" value="&lt;font style=&quot;font-size: 14px;&quot;&gt;Borrowing&lt;/font&gt;" style="shape=umlFrame;whiteSpace=wrap;html=1;pointerEvents=0;width=100;height=30;fillColor=#fff2cc;strokeColor=#d6b656;" parent="1" vertex="1">
          <mxGeometry x="418" y="-575" width="300" height="490" as="geometry" />
        </mxCell>
        <mxCell id="ppS9PcY42wEfVptC4WH2-21" value="&lt;font style=&quot;font-size: 14px;&quot;&gt;Reserve book&lt;/font&gt;" style="ellipse;whiteSpace=wrap;html=1;fillColor=#dae8fc;strokeColor=#6c8ebf;" parent="1" vertex="1">
          <mxGeometry x="498" y="-520" width="140" height="70" as="geometry" />
        </mxCell>
        <mxCell id="ppS9PcY42wEfVptC4WH2-22" value="&lt;font style=&quot;font-size: 14px;&quot;&gt;Display list of  borrowed books&lt;/font&gt;" style="ellipse;whiteSpace=wrap;html=1;fillColor=#dae8fc;strokeColor=#6c8ebf;" parent="1" vertex="1">
          <mxGeometry x="498" y="-300" width="140" height="70" as="geometry" />
        </mxCell>
        <mxCell id="ppS9PcY42wEfVptC4WH2-23" value="&lt;font style=&quot;font-size: 14px;&quot;&gt;Borrow book&lt;/font&gt;" style="ellipse;whiteSpace=wrap;html=1;fillColor=#dae8fc;strokeColor=#6c8ebf;" parent="1" vertex="1">
          <mxGeometry x="498" y="-410" width="140" height="70" as="geometry" />
        </mxCell>
        <mxCell id="ppS9PcY42wEfVptC4WH2-24" value="&lt;font style=&quot;font-size: 14px;&quot;&gt;Change date&lt;/font&gt;" style="ellipse;whiteSpace=wrap;html=1;fillColor=#dae8fc;strokeColor=#6c8ebf;" parent="1" vertex="1">
          <mxGeometry x="498" y="-190" width="140" height="70" as="geometry" />
        </mxCell>
        <mxCell id="ppS9PcY42wEfVptC4WH2-25" value="&lt;font style=&quot;font-size: 14px;&quot;&gt;Payments&lt;/font&gt;" style="shape=umlFrame;whiteSpace=wrap;html=1;pointerEvents=0;width=100;height=29;fillColor=#fff2cc;strokeColor=#d6b656;" parent="1" vertex="1">
          <mxGeometry x="-402" y="-1075" width="300" height="710" as="geometry" />
        </mxCell>
        <mxCell id="ppS9PcY42wEfVptC4WH2-26" value="&lt;font style=&quot;font-size: 14px;&quot;&gt;Generate receipt&lt;/font&gt;" style="ellipse;whiteSpace=wrap;html=1;fillColor=#dae8fc;strokeColor=#6c8ebf;" parent="1" vertex="1">
          <mxGeometry x="-322" y="-685" width="140" height="70" as="geometry" />
        </mxCell>
        <mxCell id="ppS9PcY42wEfVptC4WH2-27" value="&lt;font style=&quot;font-size: 14px;&quot;&gt;Change&lt;br&gt;payment method&lt;/font&gt;" style="ellipse;whiteSpace=wrap;html=1;fillColor=#dae8fc;strokeColor=#6c8ebf;" parent="1" vertex="1">
          <mxGeometry x="-322" y="-1015" width="140" height="70" as="geometry" />
        </mxCell>
        <mxCell id="ppS9PcY42wEfVptC4WH2-28" value="&lt;font style=&quot;font-size: 14px;&quot;&gt;Display&lt;br&gt;payments list&lt;/font&gt;" style="ellipse;whiteSpace=wrap;html=1;fillColor=#dae8fc;strokeColor=#6c8ebf;" parent="1" vertex="1">
          <mxGeometry x="-322" y="-575" width="140" height="70" as="geometry" />
        </mxCell>
        <mxCell id="ppS9PcY42wEfVptC4WH2-29" value="&lt;font style=&quot;font-size: 14px;&quot;&gt;Change&amp;nbsp;outstanding payment&lt;/font&gt;" style="ellipse;whiteSpace=wrap;html=1;fillColor=#dae8fc;strokeColor=#6c8ebf;" parent="1" vertex="1">
          <mxGeometry x="-322" y="-465" width="140" height="70" as="geometry" />
        </mxCell>
        <mxCell id="ppS9PcY42wEfVptC4WH2-30" value="&lt;font style=&quot;font-size: 14px;&quot;&gt;Payment&lt;br&gt;verification&lt;/font&gt;" style="ellipse;whiteSpace=wrap;html=1;fillColor=#dae8fc;strokeColor=#6c8ebf;" parent="1" vertex="1">
          <mxGeometry x="-322" y="-905" width="140" height="70" as="geometry" />
        </mxCell>
        <mxCell id="ppS9PcY42wEfVptC4WH2-31" value="&lt;font style=&quot;font-size: 14px;&quot;&gt;Pay&lt;/font&gt;" style="ellipse;whiteSpace=wrap;html=1;fillColor=#dae8fc;strokeColor=#6c8ebf;" parent="1" vertex="1">
          <mxGeometry x="-322" y="-795" width="140" height="70" as="geometry" />
        </mxCell>
        <mxCell id="ppS9PcY42wEfVptC4WH2-33" value="&lt;font style=&quot;font-size: 14px;&quot;&gt;Input user&lt;br&gt;data&lt;/font&gt;" style="ellipse;whiteSpace=wrap;html=1;fillColor=#dae8fc;strokeColor=#6c8ebf;" parent="1" vertex="1">
          <mxGeometry x="-322" y="-190" width="140" height="70" as="geometry" />
        </mxCell>
        <mxCell id="ppS9PcY42wEfVptC4WH2-34" value="&lt;font style=&quot;font-size: 14px;&quot;&gt;User data&lt;br&gt;verification&lt;/font&gt;" style="ellipse;whiteSpace=wrap;html=1;fillColor=#dae8fc;strokeColor=#6c8ebf;" parent="1" vertex="1">
          <mxGeometry x="-322" y="-80" width="140" height="70" as="geometry" />
        </mxCell>
        <mxCell id="ppS9PcY42wEfVptC4WH2-36" value="&lt;font style=&quot;font-size: 14px;&quot;&gt;Registration&lt;/font&gt;" style="shape=umlFrame;whiteSpace=wrap;html=1;pointerEvents=0;fontSize=9;width=100;height=30;fillColor=#fff2cc;strokeColor=#d6b656;" parent="1" vertex="1">
          <mxGeometry x="-402" y="-245" width="300" height="270" as="geometry" />
        </mxCell>
        <mxCell id="ppS9PcY42wEfVptC4WH2-37" value="&lt;font style=&quot;font-size: 14px;&quot;&gt;Inventory Managment&lt;/font&gt;" style="shape=umlFrame;whiteSpace=wrap;html=1;pointerEvents=0;fontSize=9;width=160;height=30;fillColor=#fff2cc;strokeColor=#d6b656;" parent="1" vertex="1">
          <mxGeometry x="8" y="-155" width="300" height="380" as="geometry" />
        </mxCell>
        <mxCell id="ppS9PcY42wEfVptC4WH2-39" value="&lt;font style=&quot;font-size: 14px;&quot;&gt;Change&lt;br&gt;damage state&lt;/font&gt;" style="ellipse;whiteSpace=wrap;html=1;fillColor=#dae8fc;strokeColor=#6c8ebf;" parent="1" vertex="1">
          <mxGeometry x="88" y="-95" width="140" height="70" as="geometry" />
        </mxCell>
        <mxCell id="ppS9PcY42wEfVptC4WH2-40" value="&lt;font style=&quot;font-size: 14px;&quot;&gt;Change&lt;br&gt;available state&lt;/font&gt;" style="ellipse;whiteSpace=wrap;html=1;fillColor=#dae8fc;strokeColor=#6c8ebf;" parent="1" vertex="1">
          <mxGeometry x="88" y="15" width="140" height="70" as="geometry" />
        </mxCell>
        <mxCell id="ppS9PcY42wEfVptC4WH2-41" value="&lt;font style=&quot;font-size: 14px;&quot;&gt;Change&lt;br&gt;repair state&lt;/font&gt;" style="ellipse;whiteSpace=wrap;html=1;fillColor=#dae8fc;strokeColor=#6c8ebf;" parent="1" vertex="1">
          <mxGeometry x="88" y="125" width="140" height="70" as="geometry" />
        </mxCell>
        <mxCell id="ppS9PcY42wEfVptC4WH2-42" value="&lt;font style=&quot;font-size: 14px;&quot;&gt;User management&lt;/font&gt;" style="shape=umlFrame;whiteSpace=wrap;html=1;pointerEvents=0;fontSize=8;width=140;height=27;fillColor=#fff2cc;strokeColor=#d6b656;" parent="1" vertex="1">
          <mxGeometry x="8" y="-1935" width="300" height="707" as="geometry" />
        </mxCell>
        <mxCell id="ppS9PcY42wEfVptC4WH2-44" value="&lt;font style=&quot;font-size: 14px;&quot;&gt;Ban&lt;/font&gt;" style="ellipse;whiteSpace=wrap;html=1;fillColor=#dae8fc;strokeColor=#6c8ebf;" parent="1" vertex="1">
          <mxGeometry x="88" y="-1438" width="140" height="70" as="geometry" />
        </mxCell>
        <mxCell id="ppS9PcY42wEfVptC4WH2-45" value="&lt;font style=&quot;font-size: 14px;&quot;&gt;Change user  permission&lt;/font&gt;" style="ellipse;whiteSpace=wrap;html=1;fillColor=#dae8fc;strokeColor=#6c8ebf;" parent="1" vertex="1">
          <mxGeometry x="88" y="-1658" width="140" height="70" as="geometry" />
        </mxCell>
        <mxCell id="ppS9PcY42wEfVptC4WH2-46" value="&lt;font style=&quot;font-size: 14px;&quot;&gt;Change user&lt;br&gt;personal info&lt;/font&gt;" style="ellipse;whiteSpace=wrap;html=1;fillColor=#dae8fc;strokeColor=#6c8ebf;" parent="1" vertex="1">
          <mxGeometry x="88" y="-1878" width="140" height="70" as="geometry" />
        </mxCell>
        <mxCell id="ppS9PcY42wEfVptC4WH2-47" value="&lt;font style=&quot;font-size: 14px;&quot;&gt;Change user state&lt;/font&gt;" style="ellipse;whiteSpace=wrap;html=1;fillColor=#dae8fc;strokeColor=#6c8ebf;" parent="1" vertex="1">
          <mxGeometry x="88" y="-1768" width="140" height="70" as="geometry" />
        </mxCell>
        <mxCell id="ppS9PcY42wEfVptC4WH2-49" value="&lt;font style=&quot;font-size: 14px;&quot;&gt;Manage violations&lt;/font&gt;" style="ellipse;whiteSpace=wrap;html=1;fillColor=#dae8fc;strokeColor=#6c8ebf;" parent="1" vertex="1">
          <mxGeometry x="88" y="-1548" width="140" height="70" as="geometry" />
        </mxCell>
        <mxCell id="ppS9PcY42wEfVptC4WH2-50" value="&lt;font style=&quot;font-size: 14px;&quot;&gt;Refer to&lt;br&gt;legal team&lt;/font&gt;" style="ellipse;whiteSpace=wrap;html=1;fillColor=#dae8fc;strokeColor=#6c8ebf;" parent="1" vertex="1">
          <mxGeometry x="88" y="-1328" width="140" height="70" as="geometry" />
        </mxCell>
        <mxCell id="ppS9PcY42wEfVptC4WH2-51" value="&lt;font style=&quot;font-size: 14px;&quot;&gt;localization&lt;/font&gt;" style="shape=umlFrame;whiteSpace=wrap;html=1;pointerEvents=0;fontSize=9;width=100;height=30;fillColor=#fff2cc;strokeColor=#d6b656;" parent="1" vertex="1">
          <mxGeometry x="8" y="345" width="300" height="380" as="geometry" />
        </mxCell>
        <mxCell id="ppS9PcY42wEfVptC4WH2-52" value="&lt;font style=&quot;font-size: 14px;&quot;&gt;Change&lt;br&gt;book  localization&lt;/font&gt;" style="ellipse;whiteSpace=wrap;html=1;fillColor=#dae8fc;strokeColor=#6c8ebf;" parent="1" vertex="1">
          <mxGeometry x="88" y="515" width="140" height="70" as="geometry" />
        </mxCell>
        <mxCell id="ppS9PcY42wEfVptC4WH2-53" value="&lt;font style=&quot;font-size: 14px;&quot;&gt;Find&lt;br&gt;book localization&lt;br&gt;&lt;/font&gt;" style="ellipse;whiteSpace=wrap;html=1;fillColor=#dae8fc;strokeColor=#6c8ebf;" parent="1" vertex="1">
          <mxGeometry x="88" y="405" width="140" height="70" as="geometry" />
        </mxCell>
        <mxCell id="ppS9PcY42wEfVptC4WH2-54" value="&lt;font style=&quot;font-size: 14px;&quot;&gt;Change&amp;nbsp;local info&lt;/font&gt;" style="ellipse;whiteSpace=wrap;html=1;fillColor=#dae8fc;strokeColor=#6c8ebf;" parent="1" vertex="1">
          <mxGeometry x="88" y="625" width="140" height="70" as="geometry" />
        </mxCell>
        <mxCell id="ppS9PcY42wEfVptC4WH2-56" value="&lt;font color=&quot;#000000&quot; style=&quot;font-size: 14px;&quot;&gt;Library&lt;/font&gt;" style="shape=umlActor;verticalLabelPosition=bottom;verticalAlign=top;html=1;fillColor=#a0522d;fontColor=#ffffff;strokeColor=#6D1F00;" parent="1" vertex="1">
          <mxGeometry x="1239" y="-1075" width="40" height="80" as="geometry" />
        </mxCell>
        <mxCell id="ppS9PcY42wEfVptC4WH2-58" value="&lt;font color=&quot;#000000&quot; style=&quot;font-size: 14px;&quot;&gt;Repair&lt;br&gt;provider&lt;/font&gt;" style="shape=umlActor;verticalLabelPosition=bottom;verticalAlign=top;html=1;fillColor=#008a00;fontColor=#ffffff;strokeColor=#005700;" parent="1" vertex="1">
          <mxGeometry x="1239" y="-895" width="40" height="80" as="geometry" />
        </mxCell>
        <mxCell id="ppS9PcY42wEfVptC4WH2-59" value="&lt;font style=&quot;font-size: 14px;&quot;&gt;Saul&lt;br&gt;goodman&lt;/font&gt;" style="shape=umlActor;verticalLabelPosition=bottom;verticalAlign=top;html=1;fillColor=#fa6800;fontColor=#000000;strokeColor=#C73500;" parent="1" vertex="1">
          <mxGeometry x="1238" y="-1258" width="41" height="80" as="geometry" />
        </mxCell>
        <mxCell id="HNG5Iwol2dg3Owf366JP-6" value="&lt;font style=&quot;font-size: 12px;&quot;&gt;&amp;lt;&amp;lt;extend&amp;gt;&amp;gt;&lt;/font&gt;" style="endArrow=openThin;endSize=10;dashed=1;html=1;rounded=0;entryX=1;entryY=0.5;entryDx=0;entryDy=0;exitX=1;exitY=0.5;exitDx=0;exitDy=0;edgeStyle=orthogonalEdgeStyle;startSize=10;endFill=0;jumpStyle=arc;" parent="1" source="ppS9PcY42wEfVptC4WH2-16" target="ppS9PcY42wEfVptC4WH2-14" edge="1">
          <mxGeometry x="0.0998" width="160" relative="1" as="geometry">
            <mxPoint x="598" y="-925" as="sourcePoint" />
            <mxPoint x="758" y="-925" as="targetPoint" />
            <Array as="points">
              <mxPoint x="668" y="-760" />
              <mxPoint x="668" y="-980" />
            </Array>
            <mxPoint as="offset" />
          </mxGeometry>
        </mxCell>
        <mxCell id="HNG5Iwol2dg3Owf366JP-7" value="&lt;font style=&quot;font-size: 12px;&quot;&gt;&amp;lt;&amp;lt;extend&amp;gt;&amp;gt;&lt;/font&gt;" style="endArrow=openThin;endSize=10;dashed=1;html=1;rounded=0;entryX=0;entryY=0.5;entryDx=0;entryDy=0;exitX=0;exitY=0.5;exitDx=0;exitDy=0;edgeStyle=orthogonalEdgeStyle;startSize=10;endFill=0;jumpStyle=arc;" parent="1" source="ppS9PcY42wEfVptC4WH2-24" target="ppS9PcY42wEfVptC4WH2-21" edge="1">
          <mxGeometry width="160" relative="1" as="geometry">
            <mxPoint x="888" y="-350" as="sourcePoint" />
            <mxPoint x="888" y="-570" as="targetPoint" />
            <Array as="points">
              <mxPoint x="458" y="-155" />
              <mxPoint x="458" y="-485" />
            </Array>
          </mxGeometry>
        </mxCell>
        <mxCell id="HNG5Iwol2dg3Owf366JP-8" value="&amp;lt;&amp;lt;include&amp;gt;&amp;gt;" style="endArrow=openThin;endSize=10;dashed=1;html=1;rounded=0;entryX=1;entryY=0.5;entryDx=0;entryDy=0;exitX=1;exitY=0.5;exitDx=0;exitDy=0;edgeStyle=orthogonalEdgeStyle;startSize=10;endFill=0;jumpStyle=arc;startArrow=none;startFill=0;" parent="1" source="ppS9PcY42wEfVptC4WH2-21" target="ppS9PcY42wEfVptC4WH2-23" edge="1">
          <mxGeometry width="160" relative="1" as="geometry">
            <mxPoint x="808" y="-260" as="sourcePoint" />
            <mxPoint x="808" y="-480" as="targetPoint" />
            <Array as="points">
              <mxPoint x="678" y="-485" />
              <mxPoint x="678" y="-375" />
            </Array>
          </mxGeometry>
        </mxCell>
        <mxCell id="HNG5Iwol2dg3Owf366JP-10" value="&lt;font style=&quot;font-size: 12px;&quot;&gt;&amp;lt;&amp;lt;include&amp;gt;&amp;gt;&lt;/font&gt;" style="edgeStyle=orthogonalEdgeStyle;rounded=0;orthogonalLoop=1;jettySize=auto;html=1;fontSize=8;dashed=1;endArrow=openThin;endFill=0;entryX=0;entryY=0.5;entryDx=0;entryDy=0;exitX=0;exitY=0.5;exitDx=0;exitDy=0;endSize=10;startSize=10;jumpStyle=arc;strokeWidth=1;" parent="1" source="ppS9PcY42wEfVptC4WH2-27" target="ppS9PcY42wEfVptC4WH2-30" edge="1">
          <mxGeometry relative="1" as="geometry">
            <mxPoint x="-392" y="-955" as="sourcePoint" />
            <mxPoint x="-392" y="-845" as="targetPoint" />
            <Array as="points">
              <mxPoint x="-362" y="-980" />
              <mxPoint x="-362" y="-870" />
            </Array>
          </mxGeometry>
        </mxCell>
        <mxCell id="HNG5Iwol2dg3Owf366JP-11" value="&lt;font style=&quot;font-size: 12px;&quot;&gt;&amp;lt;&amp;lt;include&amp;gt;&amp;gt;&lt;/font&gt;" style="edgeStyle=orthogonalEdgeStyle;rounded=0;orthogonalLoop=1;jettySize=auto;html=1;fontSize=8;dashed=1;endArrow=openThin;endFill=0;exitX=1;exitY=0.5;exitDx=0;exitDy=0;endSize=10;startSize=10;jumpStyle=arc;strokeWidth=1;entryX=1;entryY=0.5;entryDx=0;entryDy=0;" parent="1" source="ppS9PcY42wEfVptC4WH2-31" target="ppS9PcY42wEfVptC4WH2-26" edge="1">
          <mxGeometry x="-0.0004" relative="1" as="geometry">
            <mxPoint x="-82" y="-745" as="sourcePoint" />
            <mxPoint x="-162" y="-635" as="targetPoint" />
            <Array as="points">
              <mxPoint x="-142" y="-760" />
              <mxPoint x="-142" y="-650" />
            </Array>
            <mxPoint as="offset" />
          </mxGeometry>
        </mxCell>
        <mxCell id="HNG5Iwol2dg3Owf366JP-14" value="&lt;font style=&quot;font-size: 12px;&quot;&gt;&amp;lt;&amp;lt;include&amp;gt;&amp;gt;&lt;/font&gt;" style="edgeStyle=orthogonalEdgeStyle;rounded=0;orthogonalLoop=1;jettySize=auto;html=1;fontSize=8;dashed=1;endArrow=openThin;endFill=0;entryX=0;entryY=0.5;entryDx=0;entryDy=0;exitX=0;exitY=0.5;exitDx=0;exitDy=0;endSize=10;startSize=10;jumpStyle=arc;strokeWidth=1;" parent="1" source="ppS9PcY42wEfVptC4WH2-33" target="ppS9PcY42wEfVptC4WH2-34" edge="1">
          <mxGeometry relative="1" as="geometry">
            <mxPoint x="-332" y="-150" as="sourcePoint" />
            <mxPoint x="-332" y="-40" as="targetPoint" />
            <Array as="points">
              <mxPoint x="-362" y="-155" />
              <mxPoint x="-362" y="-45" />
            </Array>
          </mxGeometry>
        </mxCell>
        <mxCell id="HNG5Iwol2dg3Owf366JP-20" value="&lt;font style=&quot;font-size: 12px;&quot;&gt;&amp;lt;&amp;lt;extend&amp;gt;&amp;gt;&lt;/font&gt;" style="endArrow=openThin;endSize=10;dashed=1;html=1;rounded=0;entryX=0;entryY=0.5;entryDx=0;entryDy=0;exitX=0;exitY=0.5;exitDx=0;exitDy=0;edgeStyle=orthogonalEdgeStyle;startSize=10;endFill=0;jumpStyle=arc;startArrow=none;startFill=0;" parent="1" source="ppS9PcY42wEfVptC4WH2-29" target="ppS9PcY42wEfVptC4WH2-31" edge="1">
          <mxGeometry width="160" relative="1" as="geometry">
            <mxPoint x="-452" y="-630" as="sourcePoint" />
            <mxPoint x="-452" y="-520" as="targetPoint" />
            <Array as="points">
              <mxPoint x="-362" y="-430" />
              <mxPoint x="-362" y="-760" />
            </Array>
          </mxGeometry>
        </mxCell>
        <mxCell id="HNG5Iwol2dg3Owf366JP-21" value="&lt;font style=&quot;font-size: 12px;&quot;&gt;&amp;lt;&amp;lt;extend&amp;gt;&amp;gt;&lt;/font&gt;" style="endArrow=none;endSize=10;dashed=1;html=1;rounded=0;entryX=0;entryY=0.5;entryDx=0;entryDy=0;exitX=0;exitY=0.5;exitDx=0;exitDy=0;edgeStyle=orthogonalEdgeStyle;startSize=10;endFill=0;jumpStyle=arc;startArrow=openThin;startFill=0;" parent="1" source="ppS9PcY42wEfVptC4WH2-54" target="ppS9PcY42wEfVptC4WH2-52" edge="1">
          <mxGeometry width="160" relative="1" as="geometry">
            <mxPoint x="-62" y="585" as="sourcePoint" />
            <mxPoint x="-62" y="695" as="targetPoint" />
            <Array as="points">
              <mxPoint x="48" y="660" />
              <mxPoint x="48" y="550" />
            </Array>
          </mxGeometry>
        </mxCell>
        <mxCell id="HNG5Iwol2dg3Owf366JP-28" value="&lt;font style=&quot;font-size: 12px;&quot;&gt;&amp;lt;&amp;lt;include&amp;gt;&amp;gt;&lt;/font&gt;" style="edgeStyle=orthogonalEdgeStyle;rounded=0;orthogonalLoop=1;jettySize=auto;html=1;fontSize=8;dashed=1;endArrow=openThin;endFill=0;endSize=10;startSize=10;jumpStyle=arc;strokeWidth=1;exitX=1;exitY=0.5;exitDx=0;exitDy=0;" parent="1" source="ppS9PcY42wEfVptC4WH2-52" edge="1">
          <mxGeometry relative="1" as="geometry">
            <mxPoint x="48" y="545" as="sourcePoint" />
            <mxPoint x="228" y="440" as="targetPoint" />
            <Array as="points">
              <mxPoint x="268" y="550" />
              <mxPoint x="268" y="440" />
            </Array>
          </mxGeometry>
        </mxCell>
        <mxCell id="HNG5Iwol2dg3Owf366JP-40" value="" style="endArrow=block;endSize=10;endFill=0;html=1;rounded=0;startSize=10;" parent="1" edge="1">
          <mxGeometry width="160" relative="1" as="geometry">
            <mxPoint x="158" y="-905" as="sourcePoint" />
            <mxPoint x="158" y="-965" as="targetPoint" />
          </mxGeometry>
        </mxCell>
        <mxCell id="AY2gD50rp5HrpWtKRoe6-1" value="" style="endArrow=block;endSize=10;endFill=0;html=1;rounded=0;startSize=10;" parent="1" edge="1">
          <mxGeometry width="160" relative="1" as="geometry">
            <mxPoint x="157.62" y="-725" as="sourcePoint" />
            <mxPoint x="157.62" y="-785" as="targetPoint" />
          </mxGeometry>
        </mxCell>
        <mxCell id="AY2gD50rp5HrpWtKRoe6-2" value="" style="endArrow=block;endSize=10;endFill=0;html=1;rounded=0;startSize=10;" parent="1" edge="1">
          <mxGeometry width="160" relative="1" as="geometry">
            <mxPoint x="157.62" y="-545" as="sourcePoint" />
            <mxPoint x="157.62" y="-605" as="targetPoint" />
          </mxGeometry>
        </mxCell>
        <mxCell id="AY2gD50rp5HrpWtKRoe6-3" value="" style="endArrow=none;html=1;rounded=0;exitX=0;exitY=0.5;exitDx=0;exitDy=0;edgeStyle=orthogonalEdgeStyle;jumpStyle=arc;entryX=1;entryY=0.3333333333333333;entryDx=0;entryDy=0;entryPerimeter=0;" parent="1" source="ppS9PcY42wEfVptC4WH2-14" target="ppS9PcY42wEfVptC4WH2-1" edge="1">
          <mxGeometry width="50" height="50" relative="1" as="geometry">
            <mxPoint x="548" y="-805" as="sourcePoint" />
            <mxPoint x="188" y="-1048" as="targetPoint" />
            <Array as="points">
              <mxPoint x="488" y="-1015" />
              <mxPoint x="378" y="-1015" />
              <mxPoint x="378" y="-1048" />
            </Array>
          </mxGeometry>
        </mxCell>
        <mxCell id="AY2gD50rp5HrpWtKRoe6-5" value="" style="endArrow=none;html=1;rounded=0;edgeStyle=orthogonalEdgeStyle;exitX=0;exitY=0.5;exitDx=0;exitDy=0;" parent="1" source="AY2gD50rp5HrpWtKRoe6-6" edge="1">
          <mxGeometry width="50" height="50" relative="1" as="geometry">
            <mxPoint x="858" y="-1115" as="sourcePoint" />
            <mxPoint x="378" y="-1045" as="targetPoint" />
          </mxGeometry>
        </mxCell>
        <mxCell id="AY2gD50rp5HrpWtKRoe6-6" value="Find&amp;nbsp;&lt;span style=&quot;font-size: 14px;&quot;&gt;book&lt;/span&gt;" style="ellipse;whiteSpace=wrap;html=1;fillColor=#dae8fc;strokeColor=#6c8ebf;" parent="1" vertex="1">
          <mxGeometry x="788" y="-1145" width="140" height="70" as="geometry" />
        </mxCell>
        <mxCell id="AY2gD50rp5HrpWtKRoe6-10" value="&amp;lt;&amp;lt;extend&amp;gt;&amp;gt;" style="endArrow=none;endSize=10;dashed=1;html=1;rounded=0;entryX=0;entryY=0.5;entryDx=0;entryDy=0;exitX=1;exitY=0.5;exitDx=0;exitDy=0;edgeStyle=orthogonalEdgeStyle;startSize=10;endFill=0;jumpStyle=arc;startArrow=openThin;startFill=0;" parent="1" source="ppS9PcY42wEfVptC4WH2-15" target="ppS9PcY42wEfVptC4WH2-44" edge="1">
          <mxGeometry width="160" relative="1" as="geometry">
            <mxPoint x="328" y="-1055" as="sourcePoint" />
            <mxPoint x="488" y="-1055" as="targetPoint" />
            <Array as="points">
              <mxPoint x="748" y="-870" />
              <mxPoint x="748" y="-1136" />
              <mxPoint x="-32" y="-1136" />
              <mxPoint x="-32" y="-1403" />
            </Array>
          </mxGeometry>
        </mxCell>
        <mxCell id="AY2gD50rp5HrpWtKRoe6-12" value="&lt;font style=&quot;font-size: 12px;&quot;&gt;&amp;lt;&amp;lt;extend&amp;gt;&amp;gt;&lt;/font&gt;" style="endArrow=openThin;endSize=10;dashed=1;html=1;rounded=0;entryX=1;entryY=0.5;entryDx=0;entryDy=0;exitX=1;exitY=0.5;exitDx=0;exitDy=0;edgeStyle=orthogonalEdgeStyle;startSize=10;endFill=0;jumpStyle=arc;" parent="1" source="ppS9PcY42wEfVptC4WH2-50" target="ppS9PcY42wEfVptC4WH2-49" edge="1">
          <mxGeometry x="0.0998" width="160" relative="1" as="geometry">
            <mxPoint x="248" y="-1293.05" as="sourcePoint" />
            <mxPoint x="248" y="-1513.05" as="targetPoint" />
            <Array as="points">
              <mxPoint x="268" y="-1293" />
              <mxPoint x="268" y="-1513" />
            </Array>
            <mxPoint as="offset" />
          </mxGeometry>
        </mxCell>
        <mxCell id="AY2gD50rp5HrpWtKRoe6-13" value="" style="endArrow=none;endSize=10;dashed=1;html=1;rounded=0;entryX=1;entryY=0.5;entryDx=0;entryDy=0;startSize=10;endFill=0;" parent="1" target="ppS9PcY42wEfVptC4WH2-44" edge="1">
          <mxGeometry width="160" relative="1" as="geometry">
            <mxPoint x="268" y="-1403" as="sourcePoint" />
            <mxPoint x="288" y="-1325" as="targetPoint" />
          </mxGeometry>
        </mxCell>
        <mxCell id="AY2gD50rp5HrpWtKRoe6-14" value="&lt;font style=&quot;font-size: 12px;&quot;&gt;&amp;lt;&amp;lt;extend&amp;gt;&amp;gt;&lt;/font&gt;" style="endArrow=none;endSize=10;dashed=1;html=1;rounded=0;entryX=0;entryY=0.5;entryDx=0;entryDy=0;exitX=0;exitY=0.5;exitDx=0;exitDy=0;edgeStyle=orthogonalEdgeStyle;startSize=10;endFill=0;jumpStyle=arc;startArrow=openThin;startFill=0;" parent="1" source="ppS9PcY42wEfVptC4WH2-49" target="ppS9PcY42wEfVptC4WH2-47" edge="1">
          <mxGeometry x="0.0136" width="160" relative="1" as="geometry">
            <mxPoint x="28" y="-1425" as="sourcePoint" />
            <mxPoint x="28" y="-1645" as="targetPoint" />
            <Array as="points">
              <mxPoint x="48" y="-1513" />
              <mxPoint x="48" y="-1733" />
            </Array>
            <mxPoint as="offset" />
          </mxGeometry>
        </mxCell>
        <mxCell id="AY2gD50rp5HrpWtKRoe6-16" value="&lt;font style=&quot;font-size: 12px;&quot;&gt;&amp;lt;&amp;lt;extend&amp;gt;&amp;gt;&lt;/font&gt;" style="endArrow=none;endSize=10;dashed=1;html=1;rounded=0;exitX=1;exitY=0.5;exitDx=0;exitDy=0;edgeStyle=orthogonalEdgeStyle;startSize=10;endFill=0;jumpStyle=arc;" parent="1" source="ppS9PcY42wEfVptC4WH2-24" edge="1">
          <mxGeometry width="160" relative="1" as="geometry">
            <mxPoint x="508" y="-145" as="sourcePoint" />
            <mxPoint x="638" y="-375" as="targetPoint" />
            <Array as="points">
              <mxPoint x="678" y="-155" />
              <mxPoint x="678" y="-375" />
            </Array>
          </mxGeometry>
        </mxCell>
        <mxCell id="AY2gD50rp5HrpWtKRoe6-17" value="" style="endArrow=none;html=1;rounded=0;entryX=1;entryY=0.5;entryDx=0;entryDy=0;exitX=0;exitY=0.3333333333333333;exitDx=0;exitDy=0;exitPerimeter=0;edgeStyle=orthogonalEdgeStyle;jumpStyle=none;fillColor=#a0522d;strokeColor=#6D1F00;" parent="1" source="ppS9PcY42wEfVptC4WH2-56" target="AY2gD50rp5HrpWtKRoe6-6" edge="1">
          <mxGeometry width="50" height="50" relative="1" as="geometry">
            <mxPoint x="1228" y="-1045" as="sourcePoint" />
            <mxPoint x="838" y="-975" as="targetPoint" />
            <Array as="points">
              <mxPoint x="1008" y="-1048" />
              <mxPoint x="1008" y="-1110" />
            </Array>
          </mxGeometry>
        </mxCell>
        <mxCell id="AY2gD50rp5HrpWtKRoe6-18" value="" style="endArrow=none;html=1;rounded=0;exitX=1;exitY=0.5;exitDx=0;exitDy=0;exitPerimeter=0;edgeStyle=orthogonalEdgeStyle;jumpStyle=none;fillColor=#a0522d;strokeColor=#6D1F00;" parent="1" source="ppS9PcY42wEfVptC4WH2-17" edge="1">
          <mxGeometry width="50" height="50" relative="1" as="geometry">
            <mxPoint x="818" y="-925" as="sourcePoint" />
            <mxPoint x="1008" y="-1055" as="targetPoint" />
            <Array as="points">
              <mxPoint x="1008" y="-885" />
            </Array>
          </mxGeometry>
        </mxCell>
        <mxCell id="AY2gD50rp5HrpWtKRoe6-20" value="" style="endArrow=none;html=1;rounded=0;edgeStyle=orthogonalEdgeStyle;jumpStyle=arc;fillColor=#a0522d;strokeColor=#6D1F00;" parent="1" edge="1">
          <mxGeometry width="50" height="50" relative="1" as="geometry">
            <mxPoint x="718" y="-335" as="sourcePoint" />
            <mxPoint x="788" y="-885" as="targetPoint" />
            <Array as="points">
              <mxPoint x="788" y="-335" />
              <mxPoint x="788" y="-885" />
            </Array>
          </mxGeometry>
        </mxCell>
        <mxCell id="AY2gD50rp5HrpWtKRoe6-24" value="" style="endArrow=none;html=1;rounded=0;exitX=1;exitY=0.5;exitDx=0;exitDy=0;exitPerimeter=0;edgeStyle=orthogonalEdgeStyle;fillColor=#a0522d;strokeColor=#6D1F00;" parent="1" source="ppS9PcY42wEfVptC4WH2-37" edge="1">
          <mxGeometry width="50" height="50" relative="1" as="geometry">
            <mxPoint x="928" y="-195" as="sourcePoint" />
            <mxPoint x="788" y="-335" as="targetPoint" />
            <Array as="points">
              <mxPoint x="788" y="35" />
              <mxPoint x="788" y="-335" />
            </Array>
          </mxGeometry>
        </mxCell>
        <mxCell id="AY2gD50rp5HrpWtKRoe6-25" value="" style="endArrow=none;html=1;rounded=0;exitX=1;exitY=0.495;exitDx=0;exitDy=0;exitPerimeter=0;edgeStyle=orthogonalEdgeStyle;fillColor=#a0522d;strokeColor=#6D1F00;" parent="1" source="ppS9PcY42wEfVptC4WH2-42" edge="1">
          <mxGeometry width="50" height="50" relative="1" as="geometry">
            <mxPoint x="698" y="-1145" as="sourcePoint" />
            <mxPoint x="1008" y="-1105" as="targetPoint" />
            <Array as="points">
              <mxPoint x="1008" y="-1585" />
              <mxPoint x="1008" y="-1115" />
            </Array>
          </mxGeometry>
        </mxCell>
        <mxCell id="AY2gD50rp5HrpWtKRoe6-26" value="" style="endArrow=none;html=1;rounded=0;exitX=1.001;exitY=0.5;exitDx=0;exitDy=0;exitPerimeter=0;edgeStyle=orthogonalEdgeStyle;fillColor=#a0522d;strokeColor=#6D1F00;" parent="1" source="ppS9PcY42wEfVptC4WH2-51" edge="1">
          <mxGeometry width="50" height="50" relative="1" as="geometry">
            <mxPoint x="408" y="485" as="sourcePoint" />
            <mxPoint x="348" y="35" as="targetPoint" />
            <Array as="points">
              <mxPoint x="348" y="535" />
              <mxPoint x="348" y="35" />
            </Array>
          </mxGeometry>
        </mxCell>
        <mxCell id="AY2gD50rp5HrpWtKRoe6-27" value="" style="endArrow=none;html=1;rounded=0;entryX=-0.001;entryY=0.481;entryDx=0;entryDy=0;entryPerimeter=0;edgeStyle=orthogonalEdgeStyle;fillColor=#a0522d;strokeColor=#6D1F00;" parent="1" target="ppS9PcY42wEfVptC4WH2-36" edge="1">
          <mxGeometry width="50" height="50" relative="1" as="geometry">
            <mxPoint x="348" y="535" as="sourcePoint" />
            <mxPoint x="-262" y="-385" as="targetPoint" />
            <Array as="points">
              <mxPoint x="348" y="535" />
              <mxPoint x="348" y="765" />
              <mxPoint x="-452" y="765" />
              <mxPoint x="-452" y="-115" />
            </Array>
          </mxGeometry>
        </mxCell>
        <mxCell id="AY2gD50rp5HrpWtKRoe6-28" value="" style="endArrow=none;html=1;rounded=0;entryX=0;entryY=0.493;entryDx=0;entryDy=0;entryPerimeter=0;edgeStyle=orthogonalEdgeStyle;fillColor=#a0522d;strokeColor=#6D1F00;" parent="1" target="ppS9PcY42wEfVptC4WH2-25" edge="1">
          <mxGeometry width="50" height="50" relative="1" as="geometry">
            <mxPoint x="-452" y="-115" as="sourcePoint" />
            <mxPoint x="-232" y="-405" as="targetPoint" />
            <Array as="points">
              <mxPoint x="-452" y="-725" />
            </Array>
          </mxGeometry>
        </mxCell>
        <mxCell id="AY2gD50rp5HrpWtKRoe6-29" value="" style="endArrow=none;html=1;rounded=0;entryX=0;entryY=0.5;entryDx=0;entryDy=0;exitX=1;exitY=0.3333333333333333;exitDx=0;exitDy=0;exitPerimeter=0;edgeStyle=orthogonalEdgeStyle;fillColor=#d5e8d4;strokeColor=#82b366;" parent="1" source="ppS9PcY42wEfVptC4WH2-2" target="ppS9PcY42wEfVptC4WH2-21" edge="1">
          <mxGeometry width="50" height="50" relative="1" as="geometry">
            <mxPoint x="258" y="-755" as="sourcePoint" />
            <mxPoint x="308" y="-805" as="targetPoint" />
            <Array as="points">
              <mxPoint x="378" y="-868" />
              <mxPoint x="378" y="-525" />
              <mxPoint x="498" y="-525" />
            </Array>
          </mxGeometry>
        </mxCell>
        <mxCell id="AY2gD50rp5HrpWtKRoe6-30" value="" style="endArrow=none;html=1;rounded=0;entryX=0;entryY=0.5;entryDx=0;entryDy=0;edgeStyle=orthogonalEdgeStyle;fillColor=#d5e8d4;strokeColor=#82b366;" parent="1" target="ppS9PcY42wEfVptC4WH2-22" edge="1">
          <mxGeometry width="50" height="50" relative="1" as="geometry">
            <mxPoint x="378" y="-525" as="sourcePoint" />
            <mxPoint x="308" y="-535" as="targetPoint" />
            <Array as="points">
              <mxPoint x="378" y="-265" />
            </Array>
          </mxGeometry>
        </mxCell>
        <mxCell id="AY2gD50rp5HrpWtKRoe6-32" value="" style="endArrow=none;html=1;rounded=0;entryX=1;entryY=0.5;entryDx=0;entryDy=0;exitX=0;exitY=0.3333333333333333;exitDx=0;exitDy=0;exitPerimeter=0;edgeStyle=orthogonalEdgeStyle;fillColor=#d5e8d4;strokeColor=#82b366;" parent="1" source="ppS9PcY42wEfVptC4WH2-2" target="ppS9PcY42wEfVptC4WH2-27" edge="1">
          <mxGeometry width="50" height="50" relative="1" as="geometry">
            <mxPoint x="258" y="-635" as="sourcePoint" />
            <mxPoint x="308" y="-685" as="targetPoint" />
            <Array as="points">
              <mxPoint x="-62" y="-868" />
              <mxPoint x="-62" y="-980" />
            </Array>
          </mxGeometry>
        </mxCell>
        <mxCell id="AY2gD50rp5HrpWtKRoe6-33" value="" style="endArrow=none;html=1;rounded=0;exitX=1;exitY=0.5;exitDx=0;exitDy=0;edgeStyle=orthogonalEdgeStyle;fillColor=#d5e8d4;strokeColor=#82b366;" parent="1" source="ppS9PcY42wEfVptC4WH2-31" edge="1">
          <mxGeometry width="50" height="50" relative="1" as="geometry">
            <mxPoint x="-182" y="-755" as="sourcePoint" />
            <mxPoint x="-62" y="-875" as="targetPoint" />
            <Array as="points">
              <mxPoint x="-182" y="-795" />
              <mxPoint x="-62" y="-795" />
            </Array>
          </mxGeometry>
        </mxCell>
        <mxCell id="AY2gD50rp5HrpWtKRoe6-34" value="" style="endArrow=none;html=1;rounded=0;exitX=1;exitY=0.5;exitDx=0;exitDy=0;edgeStyle=orthogonalEdgeStyle;fillColor=#d5e8d4;strokeColor=#82b366;" parent="1" source="ppS9PcY42wEfVptC4WH2-28" edge="1">
          <mxGeometry width="50" height="50" relative="1" as="geometry">
            <mxPoint x="-152" y="-695" as="sourcePoint" />
            <mxPoint x="-62" y="-795" as="targetPoint" />
          </mxGeometry>
        </mxCell>
        <mxCell id="AY2gD50rp5HrpWtKRoe6-36" value="" style="endArrow=none;html=1;rounded=0;exitX=1;exitY=0.5;exitDx=0;exitDy=0;entryX=0;entryY=0.3333333333333333;entryDx=0;entryDy=0;entryPerimeter=0;edgeStyle=orthogonalEdgeStyle;fillColor=#e1d5e7;strokeColor=#9673a6;" parent="1" source="ppS9PcY42wEfVptC4WH2-29" target="ppS9PcY42wEfVptC4WH2-3" edge="1">
          <mxGeometry width="50" height="50" relative="1" as="geometry">
            <mxPoint x="88" y="-555" as="sourcePoint" />
            <mxPoint x="138" y="-605" as="targetPoint" />
          </mxGeometry>
        </mxCell>
        <mxCell id="AY2gD50rp5HrpWtKRoe6-38" value="" style="endArrow=none;html=1;rounded=0;entryX=1;entryY=0.3333333333333333;entryDx=0;entryDy=0;entryPerimeter=0;exitX=0;exitY=0.5;exitDx=0;exitDy=0;fillColor=#e1d5e7;strokeColor=#9673a6;edgeStyle=orthogonalEdgeStyle;" parent="1" source="ppS9PcY42wEfVptC4WH2-23" target="ppS9PcY42wEfVptC4WH2-3" edge="1">
          <mxGeometry width="50" height="50" relative="1" as="geometry">
            <mxPoint x="278" y="-525" as="sourcePoint" />
            <mxPoint x="328" y="-575" as="targetPoint" />
          </mxGeometry>
        </mxCell>
        <mxCell id="AY2gD50rp5HrpWtKRoe6-39" value="" style="endArrow=none;html=1;rounded=0;exitX=1;exitY=0.5;exitDx=0;exitDy=0;edgeStyle=orthogonalEdgeStyle;fillColor=#e1d5e7;strokeColor=#9673a6;" parent="1" source="ppS9PcY42wEfVptC4WH2-33" edge="1">
          <mxGeometry width="50" height="50" relative="1" as="geometry">
            <mxPoint x="168" y="-305" as="sourcePoint" />
            <mxPoint x="-22" y="-435" as="targetPoint" />
            <Array as="points">
              <mxPoint x="-22" y="-155" />
              <mxPoint x="-22" y="-430" />
            </Array>
          </mxGeometry>
        </mxCell>
        <mxCell id="AY2gD50rp5HrpWtKRoe6-40" value="" style="endArrow=none;html=1;rounded=0;entryX=0;entryY=0.5;entryDx=0;entryDy=0;edgeStyle=orthogonalEdgeStyle;fillColor=#e1d5e7;strokeColor=#9673a6;" parent="1" target="ppS9PcY42wEfVptC4WH2-39" edge="1">
          <mxGeometry width="50" height="50" relative="1" as="geometry">
            <mxPoint x="-22" y="-155" as="sourcePoint" />
            <mxPoint x="-112" y="-185" as="targetPoint" />
            <Array as="points">
              <mxPoint x="-22" y="-60" />
            </Array>
          </mxGeometry>
        </mxCell>
        <mxCell id="AY2gD50rp5HrpWtKRoe6-41" value="" style="endArrow=none;html=1;rounded=0;entryX=0;entryY=0.5;entryDx=0;entryDy=0;edgeStyle=orthogonalEdgeStyle;fillColor=#e1d5e7;strokeColor=#9673a6;" parent="1" target="ppS9PcY42wEfVptC4WH2-53" edge="1">
          <mxGeometry width="50" height="50" relative="1" as="geometry">
            <mxPoint x="-22" y="-65" as="sourcePoint" />
            <mxPoint x="8" y="-15" as="targetPoint" />
            <Array as="points">
              <mxPoint x="-22" y="445" />
              <mxPoint x="88" y="445" />
            </Array>
          </mxGeometry>
        </mxCell>
        <mxCell id="AY2gD50rp5HrpWtKRoe6-43" value="" style="endArrow=none;html=1;rounded=0;exitX=1;exitY=0.5;exitDx=0;exitDy=0;entryX=0;entryY=0.3333333333333333;entryDx=0;entryDy=0;entryPerimeter=0;edgeStyle=orthogonalEdgeStyle;fillColor=#e51400;strokeColor=#B20000;" parent="1" source="ppS9PcY42wEfVptC4WH2-29" target="ppS9PcY42wEfVptC4WH2-4" edge="1">
          <mxGeometry width="50" height="50" relative="1" as="geometry">
            <mxPoint x="138" y="-675" as="sourcePoint" />
            <mxPoint x="188" y="-725" as="targetPoint" />
            <Array as="points">
              <mxPoint x="-182" y="-465" />
              <mxPoint x="28" y="-465" />
              <mxPoint x="28" y="-508" />
            </Array>
          </mxGeometry>
        </mxCell>
        <mxCell id="AY2gD50rp5HrpWtKRoe6-44" value="" style="endArrow=none;html=1;rounded=0;entryX=1;entryY=0.3333333333333333;entryDx=0;entryDy=0;entryPerimeter=0;exitX=1;exitY=0.5;exitDx=0;exitDy=0;edgeStyle=orthogonalEdgeStyle;fillColor=#e51400;strokeColor=#B20000;" parent="1" source="ppS9PcY42wEfVptC4WH2-40" target="ppS9PcY42wEfVptC4WH2-4" edge="1">
          <mxGeometry width="50" height="50" relative="1" as="geometry">
            <mxPoint x="218" y="-205" as="sourcePoint" />
            <mxPoint x="268" y="-255" as="targetPoint" />
            <Array as="points">
              <mxPoint x="328" y="50" />
              <mxPoint x="328" y="-508" />
            </Array>
          </mxGeometry>
        </mxCell>
        <mxCell id="AY2gD50rp5HrpWtKRoe6-45" value="" style="endArrow=none;html=1;rounded=0;exitX=1;exitY=0.5;exitDx=0;exitDy=0;edgeStyle=orthogonalEdgeStyle;fillColor=#e51400;strokeColor=#B20000;" parent="1" source="ppS9PcY42wEfVptC4WH2-54" edge="1">
          <mxGeometry width="50" height="50" relative="1" as="geometry">
            <mxPoint x="198" y="185" as="sourcePoint" />
            <mxPoint x="328" y="45" as="targetPoint" />
          </mxGeometry>
        </mxCell>
        <mxCell id="AY2gD50rp5HrpWtKRoe6-49" value="" style="endArrow=none;html=1;rounded=0;entryX=0;entryY=0.5;entryDx=0;entryDy=0;edgeStyle=orthogonalEdgeStyle;fillColor=#e51400;strokeColor=#B20000;" parent="1" target="ppS9PcY42wEfVptC4WH2-24" edge="1">
          <mxGeometry width="50" height="50" relative="1" as="geometry">
            <mxPoint x="328" y="-195" as="sourcePoint" />
            <mxPoint x="328" y="-425" as="targetPoint" />
            <Array as="points">
              <mxPoint x="328" y="-195" />
              <mxPoint x="498" y="-195" />
            </Array>
          </mxGeometry>
        </mxCell>
        <mxCell id="AY2gD50rp5HrpWtKRoe6-50" value="" style="endArrow=none;html=1;rounded=0;exitX=0;exitY=0.5;exitDx=0;exitDy=0;edgeStyle=orthogonalEdgeStyle;fillColor=#e1d5e7;strokeColor=#9673a6;" parent="1" source="ppS9PcY42wEfVptC4WH2-52" edge="1">
          <mxGeometry width="50" height="50" relative="1" as="geometry">
            <mxPoint x="-72" y="315" as="sourcePoint" />
            <mxPoint x="-22" y="445" as="targetPoint" />
            <Array as="points">
              <mxPoint x="88" y="595" />
              <mxPoint x="-22" y="595" />
            </Array>
          </mxGeometry>
        </mxCell>
        <mxCell id="AY2gD50rp5HrpWtKRoe6-51" value="" style="endArrow=none;html=1;rounded=0;exitX=0;exitY=0.5;exitDx=0;exitDy=0;edgeStyle=orthogonalEdgeStyle;fillColor=#e1d5e7;strokeColor=#9673a6;" parent="1" source="ppS9PcY42wEfVptC4WH2-22" edge="1">
          <mxGeometry width="50" height="50" relative="1" as="geometry">
            <mxPoint x="268" y="-255" as="sourcePoint" />
            <mxPoint x="338" y="-375" as="targetPoint" />
            <Array as="points">
              <mxPoint x="498" y="-225" />
              <mxPoint x="338" y="-225" />
            </Array>
          </mxGeometry>
        </mxCell>
        <mxCell id="AY2gD50rp5HrpWtKRoe6-52" value="" style="endArrow=none;html=1;rounded=0;edgeStyle=orthogonalEdgeStyle;fillColor=#e1d5e7;strokeColor=#9673a6;" parent="1" edge="1">
          <mxGeometry width="50" height="50" relative="1" as="geometry">
            <mxPoint x="498" y="-155" as="sourcePoint" />
            <mxPoint x="338" y="-225" as="targetPoint" />
            <Array as="points">
              <mxPoint x="498" y="-75" />
              <mxPoint x="338" y="-75" />
            </Array>
          </mxGeometry>
        </mxCell>
        <mxCell id="AY2gD50rp5HrpWtKRoe6-53" value="" style="endArrow=none;html=1;rounded=0;entryX=0;entryY=0.5;entryDx=0;entryDy=0;edgeStyle=orthogonalEdgeStyle;fillColor=#d5e8d4;strokeColor=#82b366;" parent="1" target="ppS9PcY42wEfVptC4WH2-46" edge="1">
          <mxGeometry width="50" height="50" relative="1" as="geometry">
            <mxPoint x="-62" y="-975" as="sourcePoint" />
            <mxPoint x="238" y="-1095" as="targetPoint" />
            <Array as="points">
              <mxPoint x="-62" y="-1843" />
            </Array>
          </mxGeometry>
        </mxCell>
        <mxCell id="AY2gD50rp5HrpWtKRoe6-54" value="" style="endArrow=none;html=1;rounded=0;exitX=1;exitY=0.5;exitDx=0;exitDy=0;edgeStyle=orthogonalEdgeStyle;fillColor=#e51400;strokeColor=#B20000;" parent="1" source="ppS9PcY42wEfVptC4WH2-46" edge="1">
          <mxGeometry width="50" height="50" relative="1" as="geometry">
            <mxPoint x="58" y="-845" as="sourcePoint" />
            <mxPoint x="328" y="-505" as="targetPoint" />
          </mxGeometry>
        </mxCell>
        <mxCell id="AY2gD50rp5HrpWtKRoe6-57" value="" style="endArrow=none;html=1;rounded=0;exitX=1;exitY=0.5;exitDx=0;exitDy=0;fillColor=#e51400;strokeColor=#B20000;edgeStyle=orthogonalEdgeStyle;" parent="1" source="ppS9PcY42wEfVptC4WH2-49" edge="1">
          <mxGeometry width="50" height="50" relative="1" as="geometry">
            <mxPoint x="278" y="-1495" as="sourcePoint" />
            <mxPoint x="328" y="-1555" as="targetPoint" />
            <Array as="points">
              <mxPoint x="228" y="-1555" />
              <mxPoint x="328" y="-1555" />
            </Array>
          </mxGeometry>
        </mxCell>
        <mxCell id="AY2gD50rp5HrpWtKRoe6-59" value="" style="endArrow=none;html=1;rounded=0;entryX=0;entryY=0.3333333333333333;entryDx=0;entryDy=0;entryPerimeter=0;exitX=1;exitY=0.5;exitDx=0;exitDy=0;edgeStyle=orthogonalEdgeStyle;fillColor=#fa6800;strokeColor=#C73500;" parent="1" source="ppS9PcY42wEfVptC4WH2-50" target="ppS9PcY42wEfVptC4WH2-59" edge="1">
          <mxGeometry width="50" height="50" relative="1" as="geometry">
            <mxPoint x="698" y="-1395" as="sourcePoint" />
            <mxPoint x="748" y="-1445" as="targetPoint" />
            <Array as="points">
              <mxPoint x="228" y="-1325" />
              <mxPoint x="368" y="-1325" />
              <mxPoint x="368" y="-1231" />
            </Array>
          </mxGeometry>
        </mxCell>
        <mxCell id="AY2gD50rp5HrpWtKRoe6-60" value="&lt;font style=&quot;font-size: 12px;&quot;&gt;&amp;lt;&amp;lt;extend&amp;gt;&amp;gt;&lt;/font&gt;" style="endArrow=none;endSize=10;dashed=1;html=1;rounded=0;entryX=1;entryY=0.5;entryDx=0;entryDy=0;exitX=1;exitY=0.5;exitDx=0;exitDy=0;edgeStyle=orthogonalEdgeStyle;startSize=10;endFill=0;jumpStyle=arc;startArrow=openThin;startFill=0;" parent="1" source="ppS9PcY42wEfVptC4WH2-47" target="ppS9PcY42wEfVptC4WH2-45" edge="1">
          <mxGeometry x="0.0311" width="160" relative="1" as="geometry">
            <mxPoint x="98" y="-1503" as="sourcePoint" />
            <mxPoint x="98" y="-1723" as="targetPoint" />
            <Array as="points">
              <mxPoint x="268" y="-1733" />
              <mxPoint x="268" y="-1625" />
              <mxPoint x="228" y="-1625" />
            </Array>
            <mxPoint as="offset" />
          </mxGeometry>
        </mxCell>
        <mxCell id="AY2gD50rp5HrpWtKRoe6-61" value="" style="endArrow=none;html=1;rounded=0;exitX=1;exitY=0.5;exitDx=0;exitDy=0;edgeStyle=orthogonalEdgeStyle;fillColor=#e51400;strokeColor=#B20000;" parent="1" source="ppS9PcY42wEfVptC4WH2-47" edge="1">
          <mxGeometry width="50" height="50" relative="1" as="geometry">
            <mxPoint x="128" y="-1515" as="sourcePoint" />
            <mxPoint x="328" y="-1775" as="targetPoint" />
            <Array as="points">
              <mxPoint x="228" y="-1775" />
              <mxPoint x="328" y="-1775" />
            </Array>
          </mxGeometry>
        </mxCell>
        <mxCell id="AY2gD50rp5HrpWtKRoe6-62" value="" style="endArrow=none;html=1;rounded=0;exitX=1;exitY=0.5;exitDx=0;exitDy=0;entryX=0;entryY=0.3333333333333333;entryDx=0;entryDy=0;entryPerimeter=0;edgeStyle=orthogonalEdgeStyle;fillColor=#008a00;strokeColor=#005700;" parent="1" source="ppS9PcY42wEfVptC4WH2-41" target="ppS9PcY42wEfVptC4WH2-58" edge="1">
          <mxGeometry width="50" height="50" relative="1" as="geometry">
            <mxPoint x="758" y="-235" as="sourcePoint" />
            <mxPoint x="808" y="-285" as="targetPoint" />
            <Array as="points">
              <mxPoint x="828" y="160" />
              <mxPoint x="828" y="-868" />
            </Array>
          </mxGeometry>
        </mxCell>
        <mxCell id="AY2gD50rp5HrpWtKRoe6-64" value="&lt;font style=&quot;font-size: 14px;&quot;&gt;Use Case Diagram Library&lt;/font&gt;" style="swimlane;horizontal=0;whiteSpace=wrap;html=1;" parent="1" vertex="1">
          <mxGeometry x="-730" y="-2200" width="2280" height="3230" as="geometry" />
        </mxCell>
      </root>
    </mxGraphModel>
  </diagram>
</mxfile>
